<svg xmlns="http://www.w3.org/2000/svg" xmlns:xlink="http://www.w3.org/1999/xlink" viewBox="0 0 285.25 258.31"><defs><style>.cls-1{fill:none;}.cls-2{opacity:0.2;}.cls-3{fill:#a8dadc;}.cls-4{fill:#b8b42d;}.cls-5{clip-path:url(#clip-path);}.cls-6{clip-path:url(#clip-path-2);}.cls-7{clip-path:url(#clip-path-3);}.cls-8{fill:#fff;}.cls-9{fill:#ff6542;}.cls-10{fill:#9b4a3a;}.cls-11{fill:#b2614e;}.cls-12{fill:#a39b13;}.cls-13{opacity:0.5;}.cls-14{clip-path:url(#clip-path-4);}.cls-15{clip-path:url(#clip-path-5);}</style><clipPath id="clip-path"><path class="cls-1" d="M237.36,143.37a12.71,12.71,0,0,0,15.58-.61,15.62,15.62,0,0,0,5.19-9.45,15.15,15.15,0,0,0-3.89-12.82A11.88,11.88,0,0,0,242,117.64C232,121.22,228.8,136.88,237.36,143.37Z"/></clipPath><clipPath id="clip-path-2"><path class="cls-1" d="M249.3,157.49a10.2,10.2,0,0,0,7.58,9.94,12.5,12.5,0,0,0,8.58-1,12.14,12.14,0,0,0,6.62-8.45,9.5,9.5,0,0,0-3.77-9.34C261.36,143.78,249.62,148.89,249.3,157.49Z"/></clipPath><clipPath id="clip-path-3"><rect class="cls-1" x="146.98" y="80.13" width="74.96" height="53.25"/></clipPath><clipPath id="clip-path-4"><path class="cls-1" d="M214.46,181.32l-75.1-26.14s-9,31.82-25.21,42.32a20.91,20.91,0,0,1-6,2.72,17.47,17.47,0,0,1-4.52.6c-22.82,0-46.81-64.17-46.81-64.17l27.5-16.77,17,26.53s8.78-16.19,14-20.87,20.29-4.29,20.29-4.29c4.48,16.77,29.84-.79,29.84-.79s18.75-1.36,24.77,1C197.29,124.17,221.18,163.75,214.46,181.32Z"/></clipPath><clipPath id="clip-path-5"><path class="cls-1" d="M34.89,173a34.71,34.71,0,0,0,14.77,11.43l.08.06a20.09,20.09,0,0,0,5.67-21.77c-1.9-5.09-5.83-9.19-8-14.19-1.86-4.36-2.29-9.18-3.25-13.82-.15-.72-.32-1.45-.51-2.17l-.25.07a3,3,0,0,1-1.89-5.68,14.8,14.8,0,0,0-3.73-4.63c-2.93-2.36-7.61-3.13-10.31-.51-2.17,2.1-2.31,5.53-1.76,8.49,1.32,7.07,5.72,13.39,6.33,20.56.37,4.29-.66,8.59-.53,12.89a14.92,14.92,0,0,0,.68,3.91,2.13,2.13,0,0,1,.35-.14C36.05,166.39,37.76,171.44,34.89,173Z"/></clipPath></defs><g id="Layer_2" data-name="Layer 2"><g id="OBJECTS"><g class="cls-2"><path class="cls-3" d="M43.29,93.82A99.53,99.53,0,0,0,12.2,128.13c-13,24.06-20.54,60.56,3.32,81.69,27.3,24.18,67.05,8.72,99.62,17.62,20.75,5.67,36.86,20.39,57.18,27.15,29.84,9.92,66.7-.66,84.07-24,15.6-21,15.11-49.17,3.12-72s-34.13-40.57-58.77-53.4C169.46,89,133.11,73.67,95.8,75.72A102.27,102.27,0,0,0,43.29,93.82Z"/></g><g class="cls-2"><path class="cls-3" d="M203.3,194.17c22.79,9.51,50.81,12.22,67.85-6.23s18.07-45.43,6.15-66.73c-11.26-20.12-31.09-34-42.93-53.8-6.74-11.26-9.64-24.48-16.23-35.83C205.17,9.24,177.26-3.19,153.66.71,131.29,4.4,114.14,24.62,96,41.42c-9.53,8.8-23.59,14.34-35.4,20.78-12.81,7-24.72,14.34-33.36,26.66-16.68,23.75-13.48,42.52-1.15,60.5s44.16,24,69,18.43C135.06,158.85,166.24,178.7,203.3,194.17Z"/></g><path class="cls-4" d="M237.36,143.37a12.71,12.71,0,0,0,15.58-.61,15.62,15.62,0,0,0,5.19-9.45,15.15,15.15,0,0,0-3.89-12.82A11.88,11.88,0,0,0,242,117.64C232,121.22,228.8,136.88,237.36,143.37Z"/><g class="cls-5"><rect x="237.84" y="116.53" width="1.25" height="20.39" transform="translate(-30.18 99.22) rotate(-22.14)"/><rect x="243.01" y="126.83" width="24.45" height="1.25" transform="translate(-29.57 110.8) rotate(-23.19)"/></g><rect x="187.97" y="158.75" width="89.74" height="1.25" transform="translate(-3.53 313.47) rotate(-67.49)"/><path class="cls-4" d="M249.3,157.49a10.2,10.2,0,0,0,7.58,9.94,12.5,12.5,0,0,0,8.58-1,12.14,12.14,0,0,0,6.62-8.45,9.5,9.5,0,0,0-3.77-9.34C261.36,143.78,249.62,148.89,249.3,157.49Z"/><g class="cls-6"><rect x="264.62" y="153.53" width="1.25" height="16.48" transform="translate(10.81 340.06) rotate(-66.4)"/><rect x="252.61" y="145.01" width="1.25" height="15.4" transform="matrix(1, -0.01, 0.01, 1, -1.44, 2.41)"/></g><rect x="227.02" y="160.81" width="46.06" height="1.25" transform="translate(-42.17 104.94) rotate(-21.9)"/><rect class="cls-3" x="146.98" y="80.13" width="74.96" height="53.25"/><g class="cls-7"><path class="cls-8" d="M182.12,182a10.76,10.76,0,0,1-2.75-.36c-4-1-7.35-4.58-8.78-9.21s-.89-9.22-.3-12.83a69.26,69.26,0,0,1,35.33-49.77,12.73,12.73,0,0,0-4.66-4.27c-4.9-2.51-11.31-1.58-19.06,2.79a79.15,79.15,0,0,0-39.38,62.2l-1.24-.09a80.33,80.33,0,0,1,40-63.2c8.14-4.58,15-5.53,20.24-2.81a14.06,14.06,0,0,1,5.24,4.77A69.55,69.55,0,0,1,229.4,102l.17,1.24a68.42,68.42,0,0,0-22.14,7.06c1.8,3.16,3.14,7.71,3.3,14.24A82.16,82.16,0,0,1,197.6,171a30.52,30.52,0,0,1-7.79,8.38A13.55,13.55,0,0,1,182.12,182Zm24.16-71.11a68.11,68.11,0,0,0-34.75,48.91c-.57,3.47-1.06,8,.25,12.26s4.34,7.43,7.91,8.37c8.13,2.13,15-7.25,16.87-10.17a80.9,80.9,0,0,0,12.92-45.71C209.32,118.2,208,113.86,206.28,110.92Z"/></g><rect class="cls-9" x="146.98" y="80.39" width="74.96" height="10.34"/><path class="cls-9" d="M254.47,200.82S244,143.68,207,143.68s-47.67,57.14-47.67,57.14"/><path class="cls-10" d="M81.24,107.79c-2.49-.72-4,3.63-4.75,7.14l-4.22-5.78-14,9.36,4.35,14.66,18.84-11.49S86,109.14,81.24,107.79Z"/><polygon class="cls-4" points="189.59 136.07 189.59 166.3 179.83 177.07 158.32 200.82 114.01 200.82 115.79 159.47 189.59 136.07"/><polygon class="cls-11" points="165.41 120.39 162.41 132.27 132.31 130.38 135.91 121.17 138.45 99.58 159.26 86 165.41 120.39"/><path d="M150.56,99.51a25.47,25.47,0,0,1-13.77,14.21l1.58-13.49,6.21-4.07C146.59,97.28,148.51,98.38,150.56,99.51Z"/><path class="cls-11" d="M162,75.25l-.48,1.27-9.05,24s-12.23,12.6-24.84,1.53c-7-6.16-9-22.48-5.53-35.27.11-.41.23-.81.35-1.21l0-.18c0-.08,0-.16.08-.24l0-.12c.15-.46.31-.92.48-1.37s.23-.64.36-1,.33-.82.5-1.21c1.85-4.21,4.44-7.68,7.81-9.74a13.13,13.13,0,0,1,2.41-1.18,11.6,11.6,0,0,1,1.18-.38c.33-.09.66-.17,1-.23a14.36,14.36,0,0,1,2.73-.26h.27c8.07,0,13.27,3.33,16.61,7.51,4.23,5.27,5.5,12,5.89,15.57l0,.37,0,.18,0,.35c0,.33.05.61.06.85s0,.56,0,.67Z"/><path d="M133.65,88.55a2.71,2.71,0,0,1-2.7-2.93l.76-9.6,1.24.1-.76,9.6a1.48,1.48,0,0,0,.39,1.11,1.45,1.45,0,0,0,1.07.47h0v1.25Z"/><path d="M139.49,77c0,.73.42,1.32.94,1.32s.95-.59.95-1.32-.43-1.32-.95-1.32S139.49,76.26,139.49,77Z"/><path d="M125.17,77c0,.72.42,1.31.94,1.31s.94-.59.94-1.32-.42-1.31-.94-1.31S125.17,76.27,125.17,77Z"/><path d="M142.74,70.82a4.22,4.22,0,0,1,1.14.44c.32.21.55.51.49.79-.09.45-.85.64-1.52.7a12.21,12.21,0,0,1-4.4-.47c-.5-.15-1-.38-1.19-.73-.37-.82,1.16-1.08,1.77-1.11A12.27,12.27,0,0,1,142.74,70.82Z"/><path d="M127.69,70.43a3.1,3.1,0,0,1,1,.23c.3.14.53.37.51.63,0,.43-.66.72-1.23.87a10.29,10.29,0,0,1-3.87.23c-.44-.06-.94-.19-1.11-.48-.41-.69.88-1.15,1.42-1.28A10.4,10.4,0,0,1,127.69,70.43Z"/><path class="cls-4" d="M214.46,181.32l-75.1-26.14s-9,31.81-25.21,42.32a21.19,21.19,0,0,1-6,2.72,17.47,17.47,0,0,1-4.52.6c-16.18,0-32.95-32.25-41.34-51-3.44-7.71-5.47-13.15-5.47-13.15l27.5-16.77,6,9.4,11,17.13s8.78-16.19,14-20.87,20.29-4.3,20.29-4.3c4.48,16.78,29.84-.78,29.84-.78s18.75-1.36,24.77,1C197.29,124.17,221.19,163.75,214.46,181.32Z"/><polygon class="cls-12" points="179.83 177.07 158.32 200.82 150.26 200.82 141.31 168.35 171.35 157.04 175.45 144.75 179.83 177.07"/><path class="cls-11" d="M136.39,180.86c-4.4,1.27-7.28.27-7.6-2.1-.27-1.94,6.52-3.48,12.47-3.91a75,75,0,0,0,8.51-1.26"/><path class="cls-11" d="M149.77,173.59l7.88,21.73s-24.79,4.94-27,2.63a1.67,1.67,0,0,1-.26-2.45s-2.45.8-3.53-.29a2,2,0,0,1-.26-2.44s-2.22.38-2.4-1.68c-.2-2.26,5.91-6.49,12.21-10.23"/><path d="M127,193.23l-.84-.93a36.76,36.76,0,0,1,9.16-5.77l.51,1.14A35.64,35.64,0,0,0,127,193.23Z"/><path d="M130.7,196,130,195a60.55,60.55,0,0,1,7.73-4.08l.48,1.15A59.24,59.24,0,0,0,130.7,196Z"/><path d="M140.26,32a8.66,8.66,0,0,1,8.51,14A8.9,8.9,0,0,1,139,48.53C131.18,45.5,132.07,33.81,140.26,32Z"/><path class="cls-4" d="M214.46,181.32c-4.64,12.52-27.59,17-43.44,18.61-8.84.89-15.47.89-15.47.89L147,170l11.51-4.18,17-6.16v-15Z"/><path class="cls-12" d="M115.76,159.47l-1.61,38a20.91,20.91,0,0,1-6,2.72Z"/><circle class="cls-9" cx="89.09" cy="87.36" r="21.06" transform="matrix(0.83, -0.55, 0.55, 0.83, -33.42, 63.66)"/><path class="cls-9" d="M57.29,127.9h0a4.86,4.86,0,0,1-.69-7L81.91,91.43l4.91,3.85L64.23,126.9A4.85,4.85,0,0,1,57.29,127.9Z"/><path class="cls-3" d="M101.52,97.11a15.34,15.34,0,0,1-3.06,3,15.8,15.8,0,1,1-8-28.46,15.86,15.86,0,0,1,8.06,3.08l.3.23a15.76,15.76,0,0,1,2.69,22.18Z"/><g class="cls-13"><path class="cls-8" d="M98.53,74.7,90.9,103.06a15.81,15.81,0,0,1-15.39-7.61L94.94,72.69A16,16,0,0,1,98.53,74.7Z"/></g><g class="cls-13"><path class="cls-8" d="M101.52,97.11a15.34,15.34,0,0,1-3.06,3l2.12-23.56A15.8,15.8,0,0,1,101.52,97.11Z"/></g><g class="cls-13"><path class="cls-8" d="M90.47,71.62,73.62,84.12a15.82,15.82,0,0,1,16.85-12.5Z"/></g><path class="cls-11" d="M74.22,120.34a1.64,1.64,0,0,1-.5,2.37c-1.4,1.19-13.94-1.2-15.46-3.37-2.14-3,6.5-14.18,11.49-13.88,4,.23,11.36,9,10.94,11.17-.38,2-2.5,1.41-2.5,1.41a2,2,0,0,1-.5,2.36C76.53,121.37,74.22,120.34,74.22,120.34Z"/><path d="M77.72,118.46a35.38,35.38,0,0,0-8.08-6.28l.62-1.09a36.27,36.27,0,0,1,8.39,6.53Z"/><path d="M73.83,120.83a61.82,61.82,0,0,0-7-4.63l.59-1.09a57.91,57.91,0,0,1,7.15,4.74Z"/><path class="cls-9" d="M124.73,86.86a6.38,6.38,0,1,1,6.38-6.38A6.38,6.38,0,0,1,124.73,86.86Zm0-11.51a5.13,5.13,0,1,0,5.13,5.13A5.13,5.13,0,0,0,124.73,75.35Z"/><path class="cls-9" d="M139.17,86.86a6.38,6.38,0,1,1,6.38-6.38A6.38,6.38,0,0,1,139.17,86.86Zm0-11.51a5.13,5.13,0,1,0,5.13,5.13A5.13,5.13,0,0,0,139.17,75.35Z"/><rect class="cls-9" x="130.49" y="79.76" width="2.93" height="1.25"/><rect class="cls-9" x="143.75" y="75.37" width="17.56" height="1.25" transform="translate(-17.57 86.38) rotate(-29.98)"/><path d="M161.84,72.75a24.83,24.83,0,0,1-24.91-18.62,28.34,28.34,0,0,1-14.35,11l0-.12c.15-.46.31-.92.48-1.37s.23-.64.36-1,.33-.82.5-1.21c1.85-4.21,4.44-7.68,7.81-9.74a13.13,13.13,0,0,1,2.41-1.18,11.6,11.6,0,0,1,1.18-.38c.33-.09.66-.17,1-.23a14.36,14.36,0,0,1,2.73-.26h.27c8.07,0,13.27,3.33,16.61,7.51C160.18,62.45,161.45,69.17,161.84,72.75Z"/><path class="cls-11" d="M156.82,74.4a4.77,4.77,0,0,1,4.35-2.09,6.76,6.76,0,0,1,4.41,2.27,8.5,8.5,0,0,1-9.72,13.5"/><path d="M162.25,83.52,161,83.43a7.39,7.39,0,0,0-2-5.59l.47-1.06,3.77.09,0,1.25-2.42-.06A8.77,8.77,0,0,1,162.25,83.52Z"/><path d="M134.13,91.87l-.08-1.25a3.53,3.53,0,0,0,2-.61,2.08,2.08,0,0,0,.79-1.53l1.25.06A3.36,3.36,0,0,1,136.81,91,4.74,4.74,0,0,1,134.13,91.87Z"/><g class="cls-14"><path d="M146.93,137.07a19.58,19.58,0,0,1-11.63-3.59c-4.79-3.55-7.16-9.72-5.78-15l1.21.31c-1.26,4.8.93,10.42,5.31,13.67,4,2.95,9.65,4,15.18,2.92a31.38,31.38,0,0,0,14.1-7.41,87.85,87.85,0,0,0,10.94-12l1,.78a90.22,90.22,0,0,1-11.1,12.14,32.62,32.62,0,0,1-14.67,7.68A22.64,22.64,0,0,1,146.93,137.07Z"/></g><path class="cls-8" d="M90.37,129.28l-28,20.52c-3.44-7.71-5.47-13.15-5.47-13.15l27.5-16.77Z"/><path class="cls-8" d="M171,199.93c-8.84.89-15.47.89-15.47.89L147,170l11.51-4.18Z"/><path d="M64.88,142.9a2.63,2.63,0,1,1,2.62-2.62A2.62,2.62,0,0,1,64.88,142.9Zm0-4a1.38,1.38,0,1,0,1.37,1.38A1.38,1.38,0,0,0,64.88,138.9Z"/><path d="M160.63,195.4a2.63,2.63,0,1,1,2.62-2.62A2.62,2.62,0,0,1,160.63,195.4Zm0-4a1.38,1.38,0,1,0,1.37,1.38A1.38,1.38,0,0,0,160.63,191.4Z"/><path class="cls-9" d="M34.07,200.56c-4.41-6.51-8.27-11.86-9.95-19.54s-1-16.12,3.2-22.78,12.2-11.12,20-9.87c6.85,1.1,12.48,6.3,15.85,12.37s4.83,13,6.24,19.77a16.89,16.89,0,0,1,16.08-9.69A18,18,0,0,1,100.7,182a19.19,19.19,0,0,1-3.1,18.79"/><path d="M171.32,201.22a16.4,16.4,0,0,1-2.66-16.15,15.36,15.36,0,0,1,13.13-9.65,14.78,14.78,0,0,1,13.06,6.8c1.07-5.05,2.3-10.19,4.87-14.81,3.19-5.74,8.25-9.68,13.54-10.53,6.32-1,13.36,2.46,17.11,8.44,3.27,5.21,4.27,12.24,2.73,19.28-1.33,6.08-4.26,10.4-7.65,15.39l-.66,1-1-.7.65-1c3.33-4.89,6.2-9.11,7.47-15,1.47-6.72.53-13.41-2.56-18.34-3.5-5.57-10-8.81-15.86-7.87-4.92.79-9.65,4.49-12.65,9.9-2.76,5-3.95,10.66-5.09,16.16l-1.19.12a13.34,13.34,0,0,0-12.66-7.63,14.29,14.29,0,0,0-12.05,8.86,15.34,15.34,0,0,0,2.46,14.9Z"/><path d="M183.25,65.09a8,8,0,0,1-1-.06h0A7.1,7.1,0,0,1,183,50.87h0a6.7,6.7,0,0,1,6.24,3.5,7.79,7.79,0,0,1-.41,7.83A6.52,6.52,0,0,1,183.25,65.09Zm-.84-1.3a5.52,5.52,0,0,0,5.44-2.29,6.52,6.52,0,0,0,.34-6.54,5.51,5.51,0,0,0-5.14-2.84h0a5.85,5.85,0,0,0-.61,11.67Z"/><path class="cls-8" d="M42.36,201.18l-1-.71a41.22,41.22,0,0,1,6.12-6.83c5-4.48,10.16-6.77,15-6.6,6.5.22,12.39,4.75,17.51,13.47l-1.08.63c-4.89-8.33-10.43-12.65-16.47-12.85h-.44C51.26,188.28,42.45,201,42.36,201.18Z"/><path class="cls-3" d="M34.89,173a34.71,34.71,0,0,0,14.77,11.43l.08.06a20.09,20.09,0,0,0,5.67-21.77c-1.9-5.09-5.83-9.19-8-14.19-1.86-4.36-2.29-9.18-3.25-13.82-.15-.72-.32-1.45-.51-2.17l-.25.07a3,3,0,0,1-1.89-5.68,14.8,14.8,0,0,0-3.73-4.63c-2.93-2.36-7.61-3.13-10.31-.51-2.17,2.1-2.31,5.53-1.76,8.49,1.32,7.07,5.72,13.39,6.33,20.56.37,4.29-.66,8.59-.53,12.89a14.92,14.92,0,0,0,.68,3.91,2.13,2.13,0,0,1,.35-.14C36.05,166.39,37.76,171.44,34.89,173Z"/><rect x="43.95" y="133.06" width="1.25" height="69.32" transform="translate(-47.72 20.76) rotate(-17.25)"/><g class="cls-15"><rect x="32.46" y="137.56" width="1.25" height="19.94" transform="translate(-97.67 71.62) rotate(-47.22)"/><rect x="37.12" y="156.41" width="22.03" height="1.25" transform="translate(-115.97 150.36) rotate(-70.63)"/><rect x="29.25" y="134.43" width="22.8" height="1.25" transform="translate(-100.28 140.66) rotate(-75.52)"/><rect x="37.13" y="156.28" width="1.25" height="20.17" transform="translate(-119.22 99.57) rotate(-54.16)"/></g></g></g></svg>